<svg width="56" height="56" viewBox="0 0 56 56" fill="none" xmlns="http://www.w3.org/2000/svg">
<circle cx="28" cy="28" r="28" fill="#FCB72B"/>
<path fill-rule="evenodd" clip-rule="evenodd" d="M31.383 14H19.2562C17.9688 14.0016 16.9257 15.0448 16.9241 16.3321V39.653C16.9257 40.9403 17.9688 41.9834 19.2562 41.9851H30.9166V41.1507C30.9144 39.0496 31.5364 36.9946 32.7039 35.2477C32.8275 35.0625 32.8027 34.8161 32.6456 34.659L29.3807 31.3941C29.0789 31.092 28.9189 30.6765 28.94 30.2501C28.9613 29.8235 29.1617 29.4261 29.4917 29.1553C30.1273 28.6694 31.0262 28.7388 31.5799 29.3161L36.1839 33.9202L36.8434 33.2607L33.7151 30.1315V16.3321C33.7135 15.0448 32.6703 14.0016 31.383 14ZM32.7823 29.1987L32.2394 28.6558C31.3445 27.7416 29.9054 27.6463 28.898 28.4349C28.3651 28.8729 28.0417 29.5159 28.008 30.2051C27.9744 30.8942 28.2333 31.5655 28.7212 32.0536L31.7202 35.0528C30.6018 36.8552 30.002 38.9312 29.987 41.0522H19.2562C18.4835 41.0522 17.8569 40.4256 17.8569 39.653V38.2537H29.5174V37.3209H17.8569V17.7313H32.7823V29.1987ZM17.8569 16.7985H32.7823V16.3321C32.7823 15.5595 32.1556 14.9328 31.383 14.9328H19.2562C18.4835 14.9328 17.8569 15.5595 17.8569 16.3321V16.7985ZM35.0904 24.8503L34.4614 25.5378L37.3218 28.16C37.9952 28.7795 38.3791 29.6524 38.3793 30.5672V41.9851H39.3121V30.5672C39.311 29.3906 38.8175 28.2687 37.9511 27.4724L35.0904 24.8503ZM19.7226 22.3955H21.5883C22.1035 22.3955 22.5211 21.978 22.5211 21.4627V19.597C22.5211 19.0817 22.1035 18.6642 21.5883 18.6642H19.7226C19.2073 18.6642 18.7897 19.0817 18.7897 19.597V21.4627C18.7897 21.978 19.2073 22.3955 19.7226 22.3955ZM19.7226 19.597H21.5883V21.4627H19.7226V19.597ZM26.2524 22.3955H24.3868C23.8715 22.3955 23.4539 21.978 23.4539 21.4627V19.597C23.4539 19.0817 23.8715 18.6642 24.3868 18.6642H26.2524C26.7677 18.6642 27.1853 19.0817 27.1853 19.597V21.4627C27.1853 21.978 26.7677 22.3955 26.2524 22.3955ZM26.2524 19.597H24.3868V21.4627H26.2524V19.597ZM29.0509 22.3955H30.9166C31.4319 22.3955 31.8494 21.978 31.8494 21.4627V19.597C31.8494 19.0817 31.4319 18.6642 30.9166 18.6642H29.0509C28.5357 18.6642 28.1181 19.0817 28.1181 19.597V21.4627C28.1181 21.978 28.5357 22.3955 29.0509 22.3955ZM29.0509 19.597H30.9166V21.4627H29.0509V19.597ZM21.5883 27.0597H19.7226C19.2073 27.0597 18.7897 26.6421 18.7897 26.1269V24.2612C18.7897 23.7459 19.2073 23.3284 19.7226 23.3284H21.5883C22.1035 23.3284 22.5211 23.7459 22.5211 24.2612V26.1269C22.5211 26.6421 22.1035 27.0597 21.5883 27.0597ZM21.5883 24.2612H19.7226V26.1269H21.5883V24.2612ZM19.7226 31.7239H21.5883C22.1035 31.7239 22.5211 31.3063 22.5211 30.791V28.9254C22.5211 28.4101 22.1035 27.9925 21.5883 27.9925H19.7226C19.2073 27.9925 18.7897 28.4101 18.7897 28.9254V30.791C18.7897 31.3063 19.2073 31.7239 19.7226 31.7239ZM19.7226 28.9254H21.5883V30.791H19.7226V28.9254ZM26.2524 27.0597H24.3868C23.8715 27.0597 23.4539 26.6421 23.4539 26.1269V24.2612C23.4539 23.7459 23.8715 23.3284 24.3868 23.3284H26.2524C26.7677 23.3284 27.1853 23.7459 27.1853 24.2612V26.1269C27.1853 26.6421 26.7677 27.0597 26.2524 27.0597ZM26.2524 24.2612H24.3868V26.1269H26.2524V24.2612ZM29.0509 27.0597H30.9166C31.4319 27.0597 31.8494 26.6421 31.8494 26.1269V24.2612C31.8494 23.7459 31.4319 23.3284 30.9166 23.3284H29.0509C28.5357 23.3284 28.1181 23.7459 28.1181 24.2612V26.1269C28.1181 26.6421 28.5357 27.0597 29.0509 27.0597ZM29.0509 24.2612H30.9166V26.1269H29.0509V24.2612ZM26.2524 31.7239H24.3868C23.8715 31.7239 23.4539 31.3063 23.4539 30.791V28.9254C23.4539 28.4101 23.8715 27.9925 24.3868 27.9925H26.2524C26.7677 27.9925 27.1853 28.4101 27.1853 28.9254V30.791C27.1853 31.3063 26.7677 31.7239 26.2524 31.7239ZM26.2524 28.9254H24.3868V30.791H26.2524V28.9254ZM19.7226 36.3881H21.5883C22.1035 36.3881 22.5211 35.9705 22.5211 35.4552V33.5896C22.5211 33.0743 22.1035 32.6567 21.5883 32.6567H19.7226C19.2073 32.6567 18.7897 33.0743 18.7897 33.5896V35.4552C18.7897 35.9705 19.2073 36.3881 19.7226 36.3881ZM19.7226 33.5896H21.5883V35.4552H19.7226V33.5896ZM26.2524 36.3881H24.3868C23.8715 36.3881 23.4539 35.9705 23.4539 35.4552V33.5896C23.4539 33.0743 23.8715 32.6567 24.3868 32.6567H26.2524C26.7677 32.6567 27.1853 33.0743 27.1853 33.5896V35.4552C27.1853 35.9705 26.7677 36.3881 26.2524 36.3881ZM26.2524 33.5896H24.3868V35.4552H26.2524V33.5896ZM25.786 39.1866H24.8532V40.1194H25.786V39.1866Z" fill="#495567"/>
</svg>
