<svg width="56" height="56" viewBox="0 0 56 56" fill="none" xmlns="http://www.w3.org/2000/svg">
<circle cx="28" cy="28" r="28" fill="#FCB72B"/>
<path fill-rule="evenodd" clip-rule="evenodd" d="M37.4332 26.8333H38.4999C38.7147 26.8333 38.8888 26.6591 38.8888 26.4444V23.3333C38.8888 23.1185 38.7147 22.9444 38.4999 22.9444H34.8514L34.2221 21.6859V20.2221C34.2221 20.0074 34.048 19.8333 33.8333 19.8333H31.4999C31.2851 19.8333 31.111 20.0074 31.111 20.2221V21.7777C31.111 21.9925 31.2851 22.1666 31.4999 22.1666H33.5929L34.2221 23.425V25.6666C34.2221 25.0223 33.6998 24.4999 33.0555 24.4999C32.4111 24.4999 31.8888 25.0223 31.8888 25.6666V24.8888C31.8888 24.674 31.7147 24.4999 31.4999 24.4999H28.4366L27.2221 24.1962V17.8888C27.2221 17.0297 26.5257 16.3333 25.6666 16.3333H24.111C23.2519 16.3333 22.5555 17.0297 22.5555 17.8888V22.1666H20.611C19.9667 22.1666 19.4444 22.6889 19.4444 23.3333V24.4999H16.7221C16.5649 24.5 16.4231 24.5947 16.3629 24.74C16.3028 24.8853 16.336 25.0525 16.4472 25.1638L17.3389 26.0555L16.4472 26.9472C16.336 27.0584 16.3028 27.2257 16.3629 27.371C16.4231 27.5162 16.5649 27.611 16.7221 27.611H20.611C21.2554 27.611 21.7777 27.0887 21.7777 26.4444V25.2777H22.5555V29.1666H21.3888C20.0368 29.1682 18.8908 30.1618 18.6977 31.4999H17.4999C17.2851 31.4999 17.111 31.674 17.111 31.8888V33.4444C17.111 33.6591 17.2851 33.8333 17.4999 33.8333H18.6666V34.611H16.7221C16.5074 34.611 16.3333 34.7851 16.3333 34.9999V36.5555C16.3333 36.7703 16.5074 36.9444 16.7221 36.9444H20.9999C20.9999 38.4478 22.2187 39.6666 23.7221 39.6666C25.2256 39.6666 26.4444 38.4478 26.4444 36.9444H33.4444C33.4444 38.4478 34.6631 39.6666 36.1666 39.6666C37.67 39.6666 38.8888 38.4478 38.8888 36.9444H39.2777C39.3963 36.9444 39.5084 36.8904 39.5822 36.7977C39.6561 36.7049 39.6835 36.5835 39.6569 36.468L37.4332 26.8333ZM31.8888 25.6666C31.8888 26.3109 32.4111 26.8333 33.0555 26.8333C33.6998 26.8333 34.2221 26.3109 34.2221 25.6666V33.8333H33.0555V33.4444C33.0555 32.8 32.5331 32.2777 31.8888 32.2777V27.9999C31.8888 27.7851 31.7147 27.611 31.4999 27.611H27.2221V26.5536L28.2943 26.8216C28.3252 26.8293 28.3569 26.8332 28.3888 26.8333H31.4999C31.7147 26.8333 31.8888 26.6591 31.8888 26.4444V25.6666ZM33.4444 21.3888H31.8888V20.611H33.4444V21.3888ZM18.6666 36.1666V35.3888H17.111V36.1666H18.6666ZM18.6666 33.0555H17.8888V32.2777H18.6666V33.0555ZM38.111 23.7221H37.3333V26.0555H38.111V23.7221ZM34.9999 23.7221H36.5555V26.0555H34.9999V23.7221ZM32.2777 33.4444C32.2777 33.2296 32.1036 33.0555 31.8888 33.0555H30.3333V33.8333H32.2777V33.4444ZM28.2943 25.266C28.3252 25.2738 28.3569 25.2777 28.3888 25.2777H31.111V26.0555H28.4366L25.6666 25.3629V24.6092L28.2943 25.266ZM24.111 17.111C23.6815 17.111 23.3333 17.4593 23.3333 17.8888V19.4444H24.4999V18.6666C24.4999 18.4518 24.674 18.2777 24.8888 18.2777H26.4444V17.8888C26.4444 17.4593 26.0961 17.111 25.6666 17.111H24.111ZM24.8888 20.2221C25.1036 20.2221 25.2777 20.048 25.2777 19.8333V19.0555H26.4444V19.9328L23.3333 20.8661V20.2221H24.8888ZM26.4444 22.5555V20.7448L23.3333 21.6781V22.5555H26.4444ZM26.4444 23.3333V24.0018L25.3722 23.7338C25.256 23.7047 25.1329 23.7308 25.0384 23.8045C24.944 23.8781 24.8888 23.9912 24.8888 24.111V25.6666C24.8888 25.845 25.0102 26.0005 25.1832 26.0438L26.4444 26.3592V27.611H23.3333V23.3333H26.4444ZM31.111 32.2777V28.3888H23.3333V29.1666H29.9444C30.1591 29.1666 30.3333 29.3407 30.3333 29.5555V32.2777H31.111ZM20.9999 26.4444C20.9999 26.6591 20.8258 26.8333 20.611 26.8333H17.6609L18.1638 26.3304C18.3156 26.1786 18.3156 25.9324 18.1638 25.7805L17.6609 25.2777H20.9999V26.4444ZM20.2221 23.3333V24.4999H22.5555V22.9444H20.611C20.3963 22.9444 20.2221 23.1185 20.2221 23.3333ZM23.7221 38.8888C22.6488 38.8875 21.779 38.0177 21.7777 36.9444H22.5555C22.5555 37.5887 23.0778 38.111 23.7221 38.111C24.3665 38.111 24.8888 37.5887 24.8888 36.9444H25.6666C25.6653 38.0177 24.7955 38.8875 23.7221 38.8888ZM23.7221 37.3333C23.9369 37.3333 24.111 37.1591 24.111 36.9444H23.3333C23.3333 37.1591 23.5074 37.3333 23.7221 37.3333ZM26.4444 36.1666H20.9999V32.2777C20.9999 32.0629 21.174 31.8888 21.3888 31.8888H26.0555C26.2703 31.8888 26.4444 32.0629 26.4444 32.2777V36.1666ZM27.2221 36.1666H27.9999V31.8888C27.9986 30.8155 27.1288 29.9456 26.0555 29.9444H21.3888C20.3155 29.9456 19.4456 30.8155 19.4444 31.8888V36.1666H20.2221V32.2777C20.2221 31.6334 20.7445 31.111 21.3888 31.111H26.0555C26.6998 31.111 27.2221 31.6334 27.2221 32.2777V36.1666ZM27.9571 29.9444H29.5555V33.8333H28.7777V31.8888C28.7778 31.1565 28.4819 30.4552 27.9571 29.9444ZM28.7777 34.611V36.1666H34.2221V34.611H28.7777ZM36.1666 38.8888C35.0932 38.8875 34.2234 38.0177 34.2221 36.9444H34.9999C34.9999 37.5887 35.5223 38.111 36.1666 38.111C36.8109 38.111 37.3333 37.5887 37.3333 36.9444H38.111C38.1097 38.0177 37.2399 38.8875 36.1666 38.8888ZM36.1666 37.3333C36.3814 37.3333 36.5555 37.1591 36.5555 36.9444H35.7777C35.7777 37.1591 35.9518 37.3333 36.1666 37.3333ZM34.9999 36.1666V33.4444H35.7777V32.6666H34.9999V26.8333H36.6333L38.7869 36.1666H34.9999ZM37.3333 32.6666H36.5555V33.4444H37.3333V32.6666ZM21.7777 32.6666H22.5555V33.4444H21.7777V32.6666ZM24.111 32.6666H23.3333V33.4444H24.111V32.6666ZM24.8888 32.6666H25.6666V33.4444H24.8888V32.6666ZM33.0555 25.2777C33.2703 25.2777 33.4444 25.4518 33.4444 25.6666C33.4444 25.8814 33.2703 26.0555 33.0555 26.0555C32.8407 26.0555 32.6666 25.8814 32.6666 25.6666C32.6666 25.4518 32.8407 25.2777 33.0555 25.2777ZM16.3333 19.0555H21.3888V19.8333H16.3333V19.0555ZM21.7777 20.611H17.111V21.3888H21.7777V20.611Z" fill="#495567"/>
</svg>
